<svg xmlns="http://www.w3.org/2000/svg" xmlns:xlink="http://www.w3.org/1999/xlink" width="500" zoomAndPan="magnify" viewBox="0 0 375 374.999991" height="500" preserveAspectRatio="xMidYMid meet" version="1.0"><defs><g/></defs><g fill="#ffffff" fill-opacity="1"><g transform="translate(120.140622, 200.624987)"><g><path d="M 15.464844 -10.625 C 15.464844 -18.414062 5.5625 -21.363281 5.5625 -28.429688 L 5.5625 -31.433594 C 5.5625 -33.714844 7.457031 -35.605469 9.734375 -35.605469 C 12.015625 -35.605469 13.851562 -33.714844 13.851562 -31.433594 L 13.851562 -26.203125 L 17.914062 -26.203125 L 17.914062 -31.433594 C 17.914062 -35.996094 14.296875 -39.667969 9.734375 -39.667969 C 5.175781 -39.667969 1.503906 -35.996094 1.503906 -31.433594 L 1.503906 -28.429688 C 1.503906 -19.472656 11.40625 -17.023438 11.40625 -10.625 L 11.40625 -7.511719 C 11.40625 -6.621094 10.625 -5.953125 9.734375 -5.953125 C 8.847656 -5.953125 8.121094 -6.621094 8.121094 -7.511719 L 8.121094 -14.296875 L 4.0625 -14.296875 L 4.0625 -7.511719 C 4.0625 -4.394531 6.621094 -1.890625 9.734375 -1.890625 C 12.964844 -1.890625 15.464844 -4.394531 15.464844 -7.511719 Z M 13.851562 -10.625 L 13.851562 -7.511719 C 13.851562 -5.230469 12.015625 -3.394531 9.734375 -3.394531 C 7.457031 -3.394531 5.5625 -5.230469 5.5625 -7.511719 L 5.5625 -12.851562 L 6.566406 -12.851562 L 6.566406 -7.511719 C 6.566406 -5.785156 8.011719 -4.339844 9.734375 -4.339844 C 11.460938 -4.339844 12.90625 -5.785156 12.90625 -7.511719 L 12.90625 -10.625 C 12.90625 -17.582031 3.058594 -20.195312 3.058594 -28.429688 L 3.058594 -31.433594 C 3.058594 -35.105469 6.0625 -38.164062 9.734375 -38.164062 C 13.40625 -38.164062 16.414062 -35.105469 16.414062 -31.433594 L 16.414062 -27.652344 L 15.464844 -27.652344 L 15.464844 -31.433594 C 15.464844 -34.714844 12.964844 -37.164062 9.734375 -37.164062 C 6.621094 -37.164062 4.0625 -34.714844 4.0625 -31.433594 L 4.0625 -28.429688 C 4.0625 -20.695312 13.851562 -18.027344 13.851562 -10.625 Z M 17.914062 -10.625 C 17.914062 -19.582031 8.121094 -22.421875 8.121094 -28.429688 L 8.121094 -31.433594 C 8.121094 -32.378906 8.847656 -33.046875 9.734375 -33.046875 C 10.625 -33.046875 11.40625 -32.378906 11.40625 -31.433594 L 11.40625 -26.203125 L 12.90625 -26.203125 L 12.90625 -31.433594 C 12.90625 -33.160156 11.460938 -34.660156 9.734375 -34.660156 C 8.011719 -34.660156 6.566406 -33.160156 6.566406 -31.433594 L 6.566406 -28.429688 C 6.566406 -21.808594 16.414062 -18.914062 16.414062 -10.625 L 16.414062 -7.511719 C 16.414062 -3.839844 13.40625 -0.835938 9.734375 -0.835938 C 6.0625 -0.835938 3.058594 -3.839844 3.058594 -7.511719 L 3.058594 -14.296875 L 1.503906 -14.296875 L 1.503906 -7.511719 C 1.503906 -2.949219 5.175781 0.667969 9.734375 0.667969 C 14.296875 0.667969 17.914062 -2.949219 17.914062 -7.511719 Z M 17.914062 -10.625 "/></g></g></g><g fill="#ffffff" fill-opacity="1"><g transform="translate(139.610717, 200.624987)"><g><path d="M 8.121094 -26.203125 L 8.121094 -39 L 6.566406 -39 L 6.566406 -24.703125 L 12.90625 -24.703125 L 12.90625 -37.441406 L 13.851562 -37.441406 L 13.851562 0 L 17.914062 0 L 17.914062 -39 L 16.414062 -39 L 16.414062 -1.503906 L 15.464844 -1.503906 L 15.464844 -39 L 11.40625 -39 L 11.40625 -26.203125 Z M 12.90625 -21.195312 L 6.566406 -21.195312 L 6.566406 -1.503906 L 3.058594 -1.503906 L 3.058594 -37.441406 L 4.0625 -37.441406 L 4.0625 -24.703125 L 5.5625 -24.703125 L 5.5625 -39 L 1.503906 -39 L 1.503906 0 L 8.121094 0 L 8.121094 -19.640625 L 11.40625 -19.640625 L 11.40625 0 L 12.90625 0 Z M 12.90625 -23.757812 L 4.0625 -23.757812 L 4.0625 -2.558594 L 5.5625 -2.558594 L 5.5625 -22.144531 L 12.90625 -22.144531 Z M 12.90625 -23.757812 "/></g></g></g><g fill="#ffffff" fill-opacity="1"><g transform="translate(159.080813, 200.624987)"><g><path d="M 16.414062 -1.503906 L 15.464844 -1.503906 L 15.464844 -18.027344 C 15.464844 -20.195312 14.632812 -21.085938 13.183594 -22.585938 L 12.128906 -21.53125 C 13.183594 -20.472656 13.851562 -19.527344 13.851562 -18.027344 L 13.851562 0 L 17.914062 0 L 17.914062 -18.027344 C 17.914062 -19.863281 17.414062 -21.53125 16.300781 -22.921875 C 17.414062 -24.367188 17.914062 -26.039062 17.914062 -27.875 L 17.914062 -30.765625 C 17.914062 -35.328125 14.296875 -39 9.734375 -39 L 1.503906 -39 L 1.503906 0 L 8.121094 0 L 8.121094 -19.640625 L 9.734375 -19.640625 C 10.625 -19.640625 11.292969 -18.914062 11.292969 -18.027344 L 11.292969 0 L 12.90625 0 L 12.90625 -18.027344 C 12.90625 -19.75 11.460938 -21.195312 9.734375 -21.195312 L 6.566406 -21.195312 L 6.566406 -1.503906 L 3.058594 -1.503906 L 3.058594 -37.441406 L 9.734375 -37.441406 C 13.40625 -37.441406 16.414062 -34.4375 16.414062 -30.765625 L 16.414062 -27.875 C 16.414062 -25.648438 15.6875 -24.480469 14.296875 -22.921875 C 15.578125 -21.585938 16.414062 -19.917969 16.414062 -18.027344 Z M 5.5625 -2.558594 L 5.5625 -34.882812 L 9.734375 -34.882812 C 12.015625 -34.882812 13.851562 -33.046875 13.851562 -30.765625 L 13.851562 -27.875 C 13.851562 -25.59375 12.015625 -23.757812 9.734375 -23.757812 L 8.121094 -23.757812 L 8.121094 -32.378906 L 9.734375 -32.378906 C 10.625 -32.378906 11.40625 -31.65625 11.40625 -30.765625 L 11.40625 -27.875 C 11.40625 -26.984375 10.625 -26.203125 9.734375 -26.203125 L 9.125 -26.203125 L 9.125 -24.703125 L 9.734375 -24.703125 C 11.460938 -24.703125 12.90625 -26.039062 12.90625 -27.875 L 12.90625 -30.765625 C 12.90625 -32.492188 11.460938 -33.9375 9.734375 -33.9375 L 6.566406 -33.9375 L 6.566406 -22.144531 L 9.734375 -22.144531 C 12.964844 -22.144531 15.464844 -24.644531 15.464844 -27.875 L 15.464844 -30.765625 C 15.464844 -33.992188 12.964844 -36.496094 9.734375 -36.496094 L 4.0625 -36.496094 L 4.0625 -2.558594 Z M 5.5625 -2.558594 "/></g></g></g><g fill="#8c52ff" fill-opacity="1"><g transform="translate(178.546868, 200.624987)"><g><path d="M 16.300781 -39 L 1.503906 -39 L 1.503906 0 L 16.300781 0 L 16.300781 -1.503906 L 3.058594 -1.503906 L 3.058594 -37.441406 L 14.6875 -37.441406 L 14.6875 -36.496094 L 4.0625 -36.496094 L 4.0625 -22.144531 L 13.019531 -22.144531 L 13.019531 -26.203125 L 8.121094 -26.203125 L 8.121094 -32.378906 L 16.300781 -32.378906 L 16.300781 -33.9375 L 6.566406 -33.9375 L 6.566406 -24.703125 L 11.515625 -24.703125 L 11.515625 -23.757812 L 5.5625 -23.757812 L 5.5625 -34.882812 L 16.300781 -34.882812 Z M 8.121094 -18.636719 L 6.566406 -18.636719 L 6.566406 -5.0625 L 14.6875 -5.0625 L 14.6875 -4.0625 L 5.5625 -4.0625 L 5.5625 -19.640625 L 13.019531 -19.640625 L 13.019531 -21.195312 L 4.0625 -21.195312 L 4.0625 -2.558594 L 16.300781 -2.558594 L 16.300781 -6.621094 L 8.121094 -6.621094 Z M 8.121094 -18.636719 "/></g></g></g><g fill="#8c52ff" fill-opacity="1"><g transform="translate(196.348094, 200.624987)"><g><path d="M 5.5625 -39 L 1.503906 -39 L 1.503906 -18.414062 C 1.503906 -16.023438 2.558594 -13.851562 4.671875 -11.851562 L 5.785156 -13.019531 C 3.671875 -14.964844 3.058594 -16.578125 3.058594 -18.414062 L 3.058594 -37.441406 L 4.0625 -37.441406 L 4.0625 -18.414062 C 4.0625 -16.578125 4.953125 -14.855469 6.398438 -13.796875 L 6.398438 0 L 8.011719 0 L 8.011719 -14.632812 C 6.398438 -15.6875 5.5625 -16.914062 5.5625 -18.414062 Z M 16.414062 -39 L 16.414062 -18.414062 C 16.414062 -15.578125 14.855469 -13.242188 11.515625 -11.960938 L 11.515625 -1.503906 L 10.515625 -1.503906 L 10.515625 -12.742188 C 13.296875 -13.242188 15.464844 -15.464844 15.464844 -18.414062 L 15.464844 -39 L 11.40625 -39 L 11.40625 -18.414062 C 11.40625 -17.523438 10.625 -16.855469 9.734375 -16.855469 C 8.847656 -16.855469 8.121094 -17.523438 8.121094 -18.414062 L 8.121094 -39 L 6.566406 -39 L 6.566406 -18.414062 C 6.566406 -16.691406 8.011719 -15.242188 9.734375 -15.242188 C 11.460938 -15.242188 12.90625 -16.691406 12.90625 -18.414062 L 12.90625 -37.441406 L 13.851562 -37.441406 L 13.851562 -18.414062 C 13.851562 -16.132812 12.015625 -14.296875 9.734375 -14.296875 L 8.957031 -14.296875 L 8.957031 0 L 13.019531 0 L 13.019531 -10.90625 C 16.023438 -12.238281 17.914062 -15.1875 17.914062 -18.414062 L 17.914062 -39 Z M 16.414062 -39 "/></g></g></g><g fill="#8c52ff" fill-opacity="1"><g transform="translate(215.81819, 200.624987)"><g><path d="M 6.953125 -37.386719 L 12.628906 -37.386719 L 17.746094 -1.613281 L 16.855469 -1.613281 L 15.019531 -14.355469 L 6.0625 -14.355469 L 8.402344 -32.269531 L 10.570312 -16.855469 L 8.902344 -16.855469 L 9.234375 -19.75 L 8.511719 -25.816406 L 7.121094 -15.300781 L 12.351562 -15.300781 L 9.734375 -33.882812 L 7.398438 -33.882812 L 4.339844 -12.742188 L 13.6875 -12.742188 L 15.464844 0 L 19.582031 0 L 14.019531 -39 L 5.5625 -39 L 0 0 L 1.613281 0 Z M 7.789062 -36.441406 L 7.566406 -34.828125 L 10.515625 -34.828125 L 13.242188 -15.300781 L 14.910156 -15.300781 L 11.851562 -36.441406 Z M 2.558594 0 L 6.789062 0 L 8.066406 -10.292969 L 11.460938 -10.292969 L 12.90625 0 L 14.464844 0 L 12.851562 -11.792969 L 6.621094 -11.792969 L 5.339844 -1.613281 L 4.394531 -1.613281 L 5.730469 -11.792969 L 4.226562 -11.792969 Z M 2.558594 0 "/></g></g></g><g fill="#8c52ff" fill-opacity="1"><g transform="translate(235.399545, 200.624987)"><g><path d="M 15.464844 -10.625 C 15.464844 -18.414062 5.5625 -21.363281 5.5625 -28.429688 L 5.5625 -31.433594 C 5.5625 -33.714844 7.457031 -35.605469 9.734375 -35.605469 C 12.015625 -35.605469 13.851562 -33.714844 13.851562 -31.433594 L 13.851562 -26.203125 L 17.914062 -26.203125 L 17.914062 -31.433594 C 17.914062 -35.996094 14.296875 -39.667969 9.734375 -39.667969 C 5.175781 -39.667969 1.503906 -35.996094 1.503906 -31.433594 L 1.503906 -28.429688 C 1.503906 -19.472656 11.40625 -17.023438 11.40625 -10.625 L 11.40625 -7.511719 C 11.40625 -6.621094 10.625 -5.953125 9.734375 -5.953125 C 8.847656 -5.953125 8.121094 -6.621094 8.121094 -7.511719 L 8.121094 -14.296875 L 4.0625 -14.296875 L 4.0625 -7.511719 C 4.0625 -4.394531 6.621094 -1.890625 9.734375 -1.890625 C 12.964844 -1.890625 15.464844 -4.394531 15.464844 -7.511719 Z M 13.851562 -10.625 L 13.851562 -7.511719 C 13.851562 -5.230469 12.015625 -3.394531 9.734375 -3.394531 C 7.457031 -3.394531 5.5625 -5.230469 5.5625 -7.511719 L 5.5625 -12.851562 L 6.566406 -12.851562 L 6.566406 -7.511719 C 6.566406 -5.785156 8.011719 -4.339844 9.734375 -4.339844 C 11.460938 -4.339844 12.90625 -5.785156 12.90625 -7.511719 L 12.90625 -10.625 C 12.90625 -17.582031 3.058594 -20.195312 3.058594 -28.429688 L 3.058594 -31.433594 C 3.058594 -35.105469 6.0625 -38.164062 9.734375 -38.164062 C 13.40625 -38.164062 16.414062 -35.105469 16.414062 -31.433594 L 16.414062 -27.652344 L 15.464844 -27.652344 L 15.464844 -31.433594 C 15.464844 -34.714844 12.964844 -37.164062 9.734375 -37.164062 C 6.621094 -37.164062 4.0625 -34.714844 4.0625 -31.433594 L 4.0625 -28.429688 C 4.0625 -20.695312 13.851562 -18.027344 13.851562 -10.625 Z M 17.914062 -10.625 C 17.914062 -19.582031 8.121094 -22.421875 8.121094 -28.429688 L 8.121094 -31.433594 C 8.121094 -32.378906 8.847656 -33.046875 9.734375 -33.046875 C 10.625 -33.046875 11.40625 -32.378906 11.40625 -31.433594 L 11.40625 -26.203125 L 12.90625 -26.203125 L 12.90625 -31.433594 C 12.90625 -33.160156 11.460938 -34.660156 9.734375 -34.660156 C 8.011719 -34.660156 6.566406 -33.160156 6.566406 -31.433594 L 6.566406 -28.429688 C 6.566406 -21.808594 16.414062 -18.914062 16.414062 -10.625 L 16.414062 -7.511719 C 16.414062 -3.839844 13.40625 -0.835938 9.734375 -0.835938 C 6.0625 -0.835938 3.058594 -3.839844 3.058594 -7.511719 L 3.058594 -14.296875 L 1.503906 -14.296875 L 1.503906 -7.511719 C 1.503906 -2.949219 5.175781 0.667969 9.734375 0.667969 C 14.296875 0.667969 17.914062 -2.949219 17.914062 -7.511719 Z M 17.914062 -10.625 "/></g></g></g></svg>